<?xml version="1.0" encoding="UTF-8" standalone="no"?>
<svg
   width="375"
   viewBox="0 0 375 375"
   height="375"
   version="1.0"
   id="svg295"
   sodipodi:docname="logoKNEEOXAI.svg"
   inkscape:version="1.1.1 (c3084ef, 2021-09-22)"
   xmlns:inkscape="http://www.inkscape.org/namespaces/inkscape"
   xmlns:sodipodi="http://sodipodi.sourceforge.net/DTD/sodipodi-0.dtd"
   xmlns="http://www.w3.org/2000/svg"
   xmlns:svg="http://www.w3.org/2000/svg">
  <sodipodi:namedview
     id="namedview297"
     pagecolor="#ffffff"
     bordercolor="#111111"
     borderopacity="1"
     inkscape:pageshadow="0"
     inkscape:pageopacity="0"
     inkscape:pagecheckerboard="1"
     showgrid="false"
     inkscape:snap-bbox="true"
     inkscape:snap-global="false"
     inkscape:zoom="1.9413333"
     inkscape:cx="187.24245"
     inkscape:cy="126.71703"
     inkscape:window-width="1312"
     inkscape:window-height="954"
     inkscape:window-x="2174"
     inkscape:window-y="25"
     inkscape:window-maximized="0"
     inkscape:current-layer="svg295" />
  <defs
     id="defs175">
    <clipPath
       id="a">
      <path
         d="M 185.566406 174.6875 L 191 174.6875 L 191 192 L 185.566406 192 Z M 185.566406 174.6875"
         id="path154" />
    </clipPath>
    <clipPath
       id="b">
      <path
         d="M 197 174.6875 L 205.066406 174.6875 L 205.066406 192 L 197 192 Z M 197 174.6875"
         id="path157" />
    </clipPath>
    <clipPath
       id="c">
      <path
         d="M 186 190 L 194 190 L 194 205.4375 L 186 205.4375 Z M 186 190"
         id="path160" />
    </clipPath>
    <clipPath
       id="d">
      <path
         d="M 198 195 L 204 195 L 204 205.4375 L 198 205.4375 Z M 198 195"
         id="path163" />
    </clipPath>
    <clipPath
       id="e">
      <path
         d="M 195 196 L 203 196 L 203 205.4375 L 195 205.4375 Z M 195 196"
         id="path166" />
    </clipPath>
    <clipPath
       id="f">
      <path
         d="M 185.566406 194 L 190 194 L 190 205.4375 L 185.566406 205.4375 Z M 185.566406 194"
         id="path169" />
    </clipPath>
    <clipPath
       id="g">
      <path
         d="M 189 201 L 191 201 L 191 205.4375 L 189 205.4375 Z M 189 201"
         id="path172" />
    </clipPath>
    <clipPath
       clipPathUnits="userSpaceOnUse"
       id="clipPath551">
      <rect
         style="fill:#ff5555"
         id="rect553"
         width="286.9162"
         height="40.69368"
         x="29.361263"
         y="0.5151099" />
    </clipPath>
    <clipPath
       clipPathUnits="userSpaceOnUse"
       id="clipPath555">
      <rect
         style="fill:#ff5555"
         id="rect557"
         width="286.9162"
         height="40.69368"
         x="33.997253"
         y="168.95604" />
    </clipPath>
    <clipPath
       clipPathUnits="userSpaceOnUse"
       id="clipPath559">
      <rect
         style="fill:#ff5555"
         id="rect561"
         width="286.9162"
         height="40.69368"
         x="33.997253"
         y="168.95604" />
    </clipPath>
    <clipPath
       clipPathUnits="userSpaceOnUse"
       id="clipPath563">
      <rect
         style="fill:#ff5555"
         id="rect565"
         width="286.9162"
         height="40.69368"
         x="33.997253"
         y="168.95604" />
    </clipPath>
    <clipPath
       clipPathUnits="userSpaceOnUse"
       id="clipPath567">
      <rect
         style="fill:#ff5555"
         id="rect569"
         width="286.9162"
         height="40.69368"
         x="33.997253"
         y="168.95604" />
    </clipPath>
    <clipPath
       clipPathUnits="userSpaceOnUse"
       id="clipPath571">
      <rect
         style="fill:#ff5555"
         id="rect573"
         width="286.9162"
         height="40.69368"
         x="33.997253"
         y="168.95604" />
    </clipPath>
    <clipPath
       clipPathUnits="userSpaceOnUse"
       id="clipPath575">
      <rect
         style="fill:#ff5555"
         id="rect577"
         width="286.9162"
         height="40.69368"
         x="33.997253"
         y="168.95604" />
    </clipPath>
    <clipPath
       clipPathUnits="userSpaceOnUse"
       id="clipPath579">
      <rect
         style="fill:#ff5555"
         id="rect581"
         width="286.9162"
         height="40.69368"
         x="33.997253"
         y="168.95604" />
    </clipPath>
    <clipPath
       clipPathUnits="userSpaceOnUse"
       id="clipPath583">
      <rect
         style="fill:#ff5555"
         id="rect585"
         width="286.9162"
         height="40.69368"
         x="33.997253"
         y="168.95604" />
    </clipPath>
    <clipPath
       clipPathUnits="userSpaceOnUse"
       id="clipPath587">
      <rect
         style="fill:#ff5555"
         id="rect589"
         width="286.9162"
         height="40.69368"
         x="33.997253"
         y="168.95604" />
    </clipPath>
    <clipPath
       clipPathUnits="userSpaceOnUse"
       id="clipPath591">
      <rect
         style="fill:#ff5555"
         id="rect593"
         width="286.9162"
         height="40.69368"
         x="29.361263"
         y="0.5151099" />
    </clipPath>
    <clipPath
       clipPathUnits="userSpaceOnUse"
       id="clipPath595">
      <rect
         style="fill:#ff5555"
         id="rect597"
         width="286.9162"
         height="40.69368"
         x="33.997253"
         y="168.95604" />
    </clipPath>
    <clipPath
       clipPathUnits="userSpaceOnUse"
       id="clipPath599">
      <rect
         style="fill:#ff5555"
         id="rect601"
         width="286.9162"
         height="40.69368"
         x="33.997253"
         y="168.95604" />
    </clipPath>
    <clipPath
       clipPathUnits="userSpaceOnUse"
       id="clipPath603">
      <rect
         style="fill:#ff5555"
         id="rect605"
         width="286.9162"
         height="40.69368"
         x="33.997253"
         y="168.95604" />
    </clipPath>
    <clipPath
       clipPathUnits="userSpaceOnUse"
       id="clipPath607">
      <rect
         style="fill:#ff5555"
         id="rect609"
         width="286.9162"
         height="40.69368"
         x="29.361263"
         y="0.5151099" />
    </clipPath>
    <clipPath
       clipPathUnits="userSpaceOnUse"
       id="clipPath611">
      <rect
         style="fill:#ff5555"
         id="rect613"
         width="286.9162"
         height="40.69368"
         x="33.997253"
         y="168.95604" />
    </clipPath>
    <clipPath
       clipPathUnits="userSpaceOnUse"
       id="clipPath615">
      <rect
         style="fill:#ff5555"
         id="rect617"
         width="286.9162"
         height="40.69368"
         x="29.361263"
         y="0.5151099" />
    </clipPath>
    <clipPath
       clipPathUnits="userSpaceOnUse"
       id="clipPath619">
      <rect
         style="fill:#ff5555"
         id="rect621"
         width="286.9162"
         height="40.69368"
         x="33.997253"
         y="168.95604" />
    </clipPath>
    <clipPath
       clipPathUnits="userSpaceOnUse"
       id="clipPath623">
      <rect
         style="fill:#ff5555"
         id="rect625"
         width="286.9162"
         height="40.69368"
         x="33.997253"
         y="168.95604" />
    </clipPath>
    <clipPath
       clipPathUnits="userSpaceOnUse"
       id="clipPath627">
      <rect
         style="fill:#ff5555"
         id="rect629"
         width="286.9162"
         height="40.69368"
         x="29.361263"
         y="0.5151099" />
    </clipPath>
    <clipPath
       clipPathUnits="userSpaceOnUse"
       id="clipPath631">
      <rect
         style="fill:#ff5555"
         id="rect633"
         width="286.9162"
         height="40.69368"
         x="29.361263"
         y="0.5151099" />
    </clipPath>
    <clipPath
       clipPathUnits="userSpaceOnUse"
       id="clipPath635">
      <rect
         style="fill:#ff5555"
         id="rect637"
         width="286.9162"
         height="40.69368"
         x="33.997253"
         y="168.95604" />
    </clipPath>
    <clipPath
       clipPathUnits="userSpaceOnUse"
       id="clipPath639">
      <rect
         style="fill:#ff5555"
         id="rect641"
         width="286.9162"
         height="40.69368"
         x="29.361263"
         y="0.5151099" />
    </clipPath>
    <clipPath
       clipPathUnits="userSpaceOnUse"
       id="clipPath643">
      <rect
         style="fill:#ff5555"
         id="rect645"
         width="286.9162"
         height="40.69368"
         x="29.361263"
         y="0.5151099" />
    </clipPath>
    <clipPath
       clipPathUnits="userSpaceOnUse"
       id="clipPath647">
      <rect
         style="fill:#ff5555"
         id="rect649"
         width="286.9162"
         height="40.69368"
         x="29.361263"
         y="0.5151099" />
    </clipPath>
  </defs>
  <path
     d="m 190.84839,4.1332849 c -9.78516,0 -17.66797,7.8828121 -17.66797,17.6679691 0,9.785156 7.88281,17.664062 17.66797,17.664062 9.69531,0 17.66796,-7.878906 17.66796,-17.664062 0,-9.785157 -7.97265,-17.6679691 -17.66796,-17.6679691 z m 0,32.6171871 c -8.2461,0 -14.94922,-6.707031 -14.94922,-14.949218 0,-8.246094 6.70312,-14.9492191 14.94922,-14.9492191 8.24609,0 14.94921,6.7031251 14.94921,14.9492191 0,8.242187 -6.70312,14.949218 -14.94921,14.949218 z m 0,0"
     id="path177"
     clip-path="url(#clipPath647)" />
  <path
     fill="#ffffff"
     d="m 190.84839,6.8520349 c -8.2461,0 -14.94922,6.7031251 -14.94922,14.9492191 0,8.242187 6.70312,14.949218 14.94922,14.949218 8.24609,0 14.94921,-6.707031 14.94921,-14.949218 0,-8.246094 -6.70312,-14.9492191 -14.94921,-14.9492191 z m 0,0"
     id="path179"
     clip-path="url(#clipPath643)" />
  <path
     d="m 192.32885,24.926254 h -1.64843 c -0.28907,0 -0.56641,-0.05859 -0.83203,-0.171876 -0.26172,-0.113281 -0.4961,-0.273437 -0.69922,-0.480468 -0.20313,-0.210938 -0.35938,-0.449219 -0.47266,-0.722656 -0.10937,-0.273438 -0.16406,-0.558594 -0.16406,-0.851563 0,-0.253906 -0.41797,-1.148437 -1.98438,-2.894531 -0.48047,-0.535156 -0.71875,-1.164063 -0.72265,-1.890625 v -0.652344 c 0.004,-0.519531 0.13281,-1.003906 0.39453,-1.445313 0.26562,-0.445312 0.62109,-0.789062 1.07031,-1.027343 1.05859,-0.605469 2.19531,-0.9375 3.41016,-0.992188 3.78125,0 5.95312,1.417969 5.95312,3.894531 0,2.386719 -2.12109,5.410157 -3.03125,6.601563 -0.32422,0.421875 -0.75,0.632813 -1.27344,0.632813 z m -1.64843,-10.015626 c -1.03516,0.05469 -2.00782,0.34375 -2.91016,0.867188 -0.26953,0.140625 -0.48437,0.347656 -0.64062,0.613281 -0.16016,0.269531 -0.23829,0.558594 -0.23829,0.871094 v 0.652344 c 0,0.4375 0.14454,0.816406 0.42969,1.136719 2.27344,2.535156 2.27344,3.371093 2.27344,3.648437 0,0.148437 0.0273,0.289063 0.0859,0.425781 0.0547,0.136719 0.13281,0.257813 0.23437,0.359375 0.10156,0.105469 0.21875,0.1875 0.34766,0.242188 0.13281,0.05859 0.27344,0.08594 0.41797,0.08594 h 1.64843 c 0.17188,0 0.31641,-0.07031 0.42188,-0.210937 0.65625,-0.855469 2.80078,-3.816407 2.80078,-5.910157 0,-2.511718 -3.40625,-2.78125 -4.87109,-2.78125 z m 0,0"
     id="path181"
     clip-path="url(#clipPath639)" />
  <g
     clip-path="url(#clipPath635)"
     id="g185"
     transform="translate(-4.635989,-168.44093)">
    <path
       d="m 188.82031,191.69531 c -0.28906,0 -0.5664,-0.0547 -0.82812,-0.16797 -0.26563,-0.11328 -0.5,-0.27343 -0.70313,-0.48437 -0.20312,-0.20703 -0.35937,-0.44922 -0.46875,-0.71875 -0.11328,-0.27344 -0.16797,-0.5586 -0.16797,-0.85547 v -0.89844 c -0.69922,-0.86719 -1.0625,-1.86719 -1.08203,-2.99609 0.0391,-0.73828 0.33594,-1.33985 0.89453,-1.80469 0.75391,-0.73047 1.35157,-1.57422 1.80078,-2.53125 0.44922,-0.95703 0.71485,-1.96875 0.79688,-3.02734 0.12109,-1.59375 0.20312,-3.05469 0.25391,-4.33985 l 1.08203,0.043 c -0.0508,1.30078 -0.13672,2.77735 -0.25391,4.38281 -0.0937,1.19922 -0.39453,2.33594 -0.90234,3.41797 -0.50391,1.08203 -1.1836,2.03516 -2.03125,2.85938 -0.33203,0.25 -0.51563,0.58203 -0.5586,1 0.0234,0.91406 0.33203,1.71094 0.92578,2.39453 0.10547,0.10937 0.15625,0.23828 0.16016,0.39062 v 1.10938 c -0.004,0.30078 0.0977,0.55469 0.29688,0.76953 0.19921,0.21875 0.44531,0.33203 0.73437,0.34375 0.0859,-0.10156 0.43359,-0.63672 0.55469,-2.84375 0.0156,-0.21875 0.0664,-0.42578 0.15625,-0.62109 0.0898,-0.19922 0.21094,-0.3711 0.36328,-0.51953 0.15625,-0.15235 0.33203,-0.26563 0.52734,-0.34375 0.19922,-0.082 0.40235,-0.1211 0.61328,-0.1211 v 1.11328 c -0.15234,0 -0.28515,0.0508 -0.39453,0.16016 -0.11328,0.10547 -0.17578,0.23828 -0.18359,0.39453 -0.15625,2.69531 -0.64453,3.89453 -1.58594,3.89453 z m 0,0"
       id="path183" />
  </g>
  <path
     d="m 184.18432,23.254378 v -1.113281 c 0.82422,0 3.125,-0.257812 3.87891,-1.421875 l 0.90234,0.621094 c -1.23047,1.894531 -4.63672,1.914062 -4.78125,1.914062 z m 0,0"
     id="path187"
     clip-path="url(#clipPath631)" />
  <path
     d="m 195.55151,23.812972 c -0.76172,0.03125 -1.43359,-0.207031 -2.00781,-0.71875 l 0.75781,-0.796875 c 0.36719,0.292969 0.78516,0.429688 1.25,0.402344 0.4375,-0.01172 0.86328,-0.08984 1.27734,-0.238281 -0.65234,-0.765625 -1.41796,-1.433594 -1.82031,-1.433594 v -1.109375 c 1.28906,0 2.83985,2.039063 3.14063,2.445313 0.10156,0.140624 0.13281,0.296874 0.0937,0.464843 -0.0391,0.171875 -0.13282,0.292969 -0.28516,0.371094 -0.76172,0.375 -1.5625,0.578125 -2.40625,0.613281 z m 0,0"
     id="path189"
     clip-path="url(#clipPath627)" />
  <g
     clip-path="url(#clipPath623)"
     id="g193"
     transform="translate(-4.635989,-168.44093)">
    <path
       d="m 202.89453,191.14062 h -1.08594 c 0.0117,-1.35546 0.45313,-2.54296 1.32422,-3.5625 0.53906,-0.55078 0.82031,-1.21875 0.84375,-2.0039 -0.004,-0.36719 -0.0625,-0.73047 -0.17578,-1.08203 -0.11328,-0.34766 -0.27344,-0.67578 -0.48047,-0.97657 -0.20703,-0.30078 -0.45703,-0.5625 -0.74219,-0.78515 -0.28906,-0.22266 -0.60156,-0.39844 -0.9375,-0.52344 -2.03125,-0.69531 -4.16015,-7.75 -4.16015,-10.54297 h 1.08203 c 0,2.875 2.23828,9.08203 3.41797,9.48828 0.44531,0.16407 0.85547,0.39063 1.23437,0.6836 0.37891,0.29297 0.70313,0.63672 0.98047,1.03125 0.27344,0.39843 0.48438,0.82422 0.63281,1.28515 0.14844,0.46485 0.22266,0.9375 0.23047,1.42188 -0.0156,1.04687 -0.3789,1.94531 -1.08203,2.69922 -0.23047,0.27343 -0.43359,0.57031 -0.60156,0.89062 -0.29297,0.625 -0.45313,1.28125 -0.48047,1.97656 z m 0,0"
       id="path191" />
  </g>
  <g
     clip-path="url(#clipPath619)"
     id="g197"
     transform="translate(-4.635989,-168.44093)">
    <path
       d="m 192.60937,206.16406 h -1.08203 c 0,-1.79687 -1.64843,-4.47656 -2.97265,-6.63281 -1.21485,-1.97266 -1.90235,-3.125 -1.90235,-3.94141 -0.008,-1.00781 0.17578,-1.98047 0.54688,-2.91406 0.0117,-0.21094 0.0586,-0.41406 0.14453,-0.60547 0.0898,-0.1914 0.20703,-0.35937 0.35937,-0.5039 0.15235,-0.14454 0.32422,-0.25391 0.51563,-0.32813 0.19531,-0.0742 0.39453,-0.10547 0.60156,-0.0977 0.83985,0.0391 1.66797,0.16016 2.48438,0.36329 0.44531,0.0977 0.85937,0.0156 1.23828,-0.2461 l 0.84765,-0.58203 0.60157,0.92578 -0.85157,0.58203 c -0.63281,0.4336 -1.3164,0.57032 -2.05859,0.40625 -0.74609,-0.17968 -1.5,-0.29297 -2.26172,-0.33593 -0.15625,-0.0156 -0.29297,0.0352 -0.40234,0.14843 -0.10938,0.11328 -0.15625,0.25391 -0.14063,0.41407 0,0.0859 -0.0195,0.16406 -0.0547,0.24218 -0.33594,0.8086 -0.4961,1.65235 -0.48438,2.53125 0,0.53125 0.91797,2.02735 1.73047,3.34766 1.47266,2.39453 3.14062,5.11328 3.14062,7.22656 z m 0,0"
       id="path195" />
  </g>
  <path
     d="m 187.43042,26.039535 c -1.60157,-0.06641 -3.125,-0.457031 -4.57032,-1.171875 l 0.48047,-0.996094 c 1.29688,0.632812 2.66016,0.984375 4.08985,1.054688 0.69922,0.03125 1.34375,-0.152344 1.92968,-0.542969 0.5625,-0.382813 1.1836,-0.574219 1.85938,-0.570313 v 1.113282 c -0.48438,-0.0039 -0.92188,0.136718 -1.32031,0.421874 -0.75391,0.492188 -1.57422,0.722657 -2.46875,0.691407 z m 0,0"
     id="path199"
     clip-path="url(#clipPath615)" />
  <g
     clip-path="url(#clipPath611)"
     id="g203"
     transform="translate(-4.635989,-168.44093)">
    <path
       d="m 199.10547,206.16406 h -1.08594 c 0,-3.69531 2.78125,-7.67969 3.98047,-9.22265 0.23437,-0.30469 0.35156,-0.64844 0.35156,-1.03907 v -0.3125 h 1.08203 v 0.3125 c 0,0.64844 -0.19531,1.22657 -0.58984,1.73047 -1.125,1.45313 -3.73828,5.1875 -3.73828,8.53125 z m 0,0"
       id="path201" />
  </g>
  <path
     d="m 198.7976,26.039535 h -1.08203 v -0.480469 c 0,-0.597656 -0.24218,-1.058594 -0.72265,-1.390625 l -0.66016,-0.453125 0.60156,-0.925781 0.66016,0.453125 c 0.375,0.257812 0.67187,0.59375 0.88281,1.003906 0.21485,0.410156 0.32031,0.847656 0.32031,1.3125 z m 0,0"
     id="path205"
     clip-path="url(#clipPath607)" />
  <g
     clip-path="url(#clipPath603)"
     id="g209"
     transform="translate(-4.635989,-168.44093)">
    <path
       d="m 196.39844,205.60937 h -1.08203 v -3.33984 c 0,-0.0273 0,-0.0547 0.004,-0.0781 0.0156,-0.125 0.44531,-3.10157 2.04297,-5.07032 0.53906,-0.65625 1.22656,-0.98047 2.0625,-0.97265 h 3.46875 v 1.11328 h -3.46875 c -0.5,-0.008 -0.91016,0.18359 -1.23047,0.57422 -1.3164,1.61718 -1.74219,4.14453 -1.79687,4.47656 z m 0,0"
       id="path207" />
  </g>
  <g
     clip-path="url(#clipPath599)"
     id="g213"
     transform="translate(-4.635989,-168.44093)">
    <path
       d="m 189.35937,206.16406 h -1.08203 c -0.0156,-2.76172 -0.77734,-5.28906 -2.28515,-7.57812 -0.28125,-0.39453 -0.42188,-0.83594 -0.42188,-1.32422 0,-0.6211 0,-1.5586 0.73438,-2.09766 l 0.50781,-0.52344 0.76562,0.78907 -0.54296,0.55468 c -0.0234,0.0273 -0.0508,0.0508 -0.082,0.0703 -0.2539,0.17578 -0.30078,0.52734 -0.30078,1.20703 0,0.25781 0.0781,0.48828 0.23047,0.6914 1.63281,2.48047 2.45703,5.21485 2.47656,8.21094 z m 0,0"
       id="path211" />
  </g>
  <g
     clip-path="url(#clipPath595)"
     id="g217"
     transform="translate(-4.635989,-168.44093)">
    <path
       d="m 189.90234,201.15625 h 1.08203 v 5.00781 h -1.08203 z m 0,0"
       id="path215" />
  </g>
  <path
     d="m 189.05542,34.941878 c -2.02344,0 -2.98438,-3.304687 -3.23047,-4.316406 -0.0547,-0.378906 -0.19531,-0.71875 -0.41797,-1.019531 -0.22266,-0.304687 -0.50391,-0.535156 -0.83984,-0.691406 -0.98047,-0.351563 -1.71875,-1 -2.21094,-1.941407 -0.125,-0.246093 -0.22656,-0.496093 -0.3125,-0.757812 l 1.03125,-0.351562 c 0.0664,0.207031 0.14844,0.410156 0.24609,0.605468 0.3711,0.679688 0.91406,1.148438 1.63281,1.40625 0.50391,0.21875 0.92579,0.546875 1.26563,0.988282 0.33984,0.4375 0.55859,0.9375 0.65234,1.488281 0.34375,1.398437 1.20313,3.476562 2.1836,3.476562 z m 0,0"
     id="path219"
     clip-path="url(#clipPath591)" />
  <g
     id="g227"
     transform="translate(-4.635989,-168.44093)"
     clip-path="url(#clipPath587)">
    <g
       id="g225">
      <g
         id="g223">
        <path
           d="M 2.796875,0 C 2.179688,0 1.875,-0.304688 1.875,-0.921875 v -31.9375 c 0,-0.613281 0.304688,-0.921875 0.921875,-0.921875 h 7.234375 c 0.613281,0 0.921875,0.308594 0.921875,0.921875 V -21.8125 c 0,0.167969 0.05469,0.265625 0.171875,0.296875 0.113281,0.03125 0.21875,-0.01953 0.3125,-0.15625 l 8.15625,-11.53125 c 0.25,-0.382813 0.617188,-0.578125 1.109375,-0.578125 h 8.203125 c 0.476562,0 0.71875,0.179688 0.71875,0.53125 0,0.230469 -0.0625,0.421875 -0.1875,0.578125 l -9.75,13.609375 c -0.125,0.199219 -0.140625,0.375 -0.04687,0.53125 l 10.21875,17.421875 c 0.101563,0.199219 0.15625,0.375 0.15625,0.53125 C 30.015625,-0.191406 29.753906,0 29.234375,0 h -8.15625 C 20.597656,0 20.25,-0.207031 20.03125,-0.625 l -6.515625,-11.578125 c -0.07422,-0.132813 -0.167969,-0.203125 -0.28125,-0.203125 -0.105469,0 -0.1875,0.07031 -0.25,0.203125 l -1.890625,2.84375 C 11,-9.171875 10.953125,-9.007812 10.953125,-8.875 v 7.953125 C 10.953125,-0.304688 10.644531,0 10.03125,0 Z m 0,0"
           transform="translate(35.325,207.027)"
           id="path221" />
      </g>
    </g>
  </g>
  <g
     id="g235"
     transform="translate(-4.635989,-168.44093)"
     clip-path="url(#clipPath583)">
    <g
       id="g233">
      <g
         id="g231">
        <path
           d="M 2.796875,0 C 2.179688,0 1.875,-0.304688 1.875,-0.921875 v -31.9375 c 0,-0.613281 0.304688,-0.921875 0.921875,-0.921875 H 9.75 c 0.507812,0 0.878906,0.214844 1.109375,0.640625 l 9.5,15.96875 c 0.09375,0.125 0.191406,0.1875 0.296875,0.1875 0.125,0 0.1875,-0.113281 0.1875,-0.34375 l -0.04687,-15.53125 c 0,-0.613281 0.304687,-0.921875 0.921875,-0.921875 h 7.234375 c 0.601563,0 0.90625,0.308594 0.90625,0.921875 v 31.9375 C 29.859375,-0.304688 29.554688,0 28.953125,0 H 22 C 21.488281,0 21.117188,-0.207031 20.890625,-0.625 L 11.34375,-16.890625 c -0.105469,-0.15625 -0.214844,-0.222656 -0.328125,-0.203125 -0.105469,0.01172 -0.15625,0.109375 -0.15625,0.296875 l 0.09375,15.875 C 10.953125,-0.304688 10.644531,0 10.03125,0 Z m 0,0"
           transform="translate(66.008,207.027)"
           id="path229" />
      </g>
    </g>
  </g>
  <g
     id="g243"
     transform="translate(-4.635989,-168.44093)"
     clip-path="url(#clipPath579)">
    <g
       id="g241">
      <g
         id="g239">
        <path
           d="M 26.34375,-26.921875 C 26.34375,-26.304688 26.035156,-26 25.421875,-26 H 11.34375 c -0.261719,0 -0.390625,0.125 -0.390625,0.375 v 4.25 c 0,0.261719 0.128906,0.390625 0.390625,0.390625 h 8.578125 c 0.613281,0 0.921875,0.304687 0.921875,0.90625 v 5.890625 c 0,0.617188 -0.308594,0.921875 -0.921875,0.921875 H 11.34375 c -0.261719,0 -0.390625,0.132813 -0.390625,0.390625 v 4.71875 c 0,0.261719 0.128906,0.390625 0.390625,0.390625 h 14.078125 c 0.613281,0 0.921875,0.308594 0.921875,0.921875 v 5.921875 C 26.34375,-0.304688 26.035156,0 25.421875,0 h -22.625 C 2.179688,0 1.875,-0.304688 1.875,-0.921875 v -31.9375 c 0,-0.613281 0.304688,-0.921875 0.921875,-0.921875 h 22.625 c 0.613281,0 0.921875,0.308594 0.921875,0.921875 z m 0,0"
           transform="translate(97.752,207.027)"
           id="path237" />
      </g>
    </g>
  </g>
  <g
     id="g251"
     transform="translate(-4.635989,-168.44093)"
     clip-path="url(#clipPath575)">
    <g
       id="g249">
      <g
         id="g247">
        <path
           d="M 26.34375,-26.921875 C 26.34375,-26.304688 26.035156,-26 25.421875,-26 H 11.34375 c -0.261719,0 -0.390625,0.125 -0.390625,0.375 v 4.25 c 0,0.261719 0.128906,0.390625 0.390625,0.390625 h 8.578125 c 0.613281,0 0.921875,0.304687 0.921875,0.90625 v 5.890625 c 0,0.617188 -0.308594,0.921875 -0.921875,0.921875 H 11.34375 c -0.261719,0 -0.390625,0.132813 -0.390625,0.390625 v 4.71875 c 0,0.261719 0.128906,0.390625 0.390625,0.390625 h 14.078125 c 0.613281,0 0.921875,0.308594 0.921875,0.921875 v 5.921875 C 26.34375,-0.304688 26.035156,0 25.421875,0 h -22.625 C 2.179688,0 1.875,-0.304688 1.875,-0.921875 v -31.9375 c 0,-0.613281 0.304688,-0.921875 0.921875,-0.921875 h 22.625 c 0.613281,0 0.921875,0.308594 0.921875,0.921875 z m 0,0"
           transform="translate(125.25,207.027)"
           id="path245" />
      </g>
    </g>
  </g>
  <g
     id="g259"
     transform="translate(-4.635989,-168.44093)"
     clip-path="url(#clipPath571)">
    <g
       id="g257">
      <g
         id="g255">
        <path
           d="m 1.984375,-9.890625 c -0.617187,0 -0.921875,-0.304687 -0.921875,-0.921875 v -5.875 c 0,-0.613281 0.304688,-0.921875 0.921875,-0.921875 h 16.25 c 0.613281,0 0.921875,0.308594 0.921875,0.921875 v 5.875 c 0,0.617188 -0.308594,0.921875 -0.921875,0.921875 z m 0,0"
           transform="translate(152.75,207.027)"
           id="path253" />
      </g>
    </g>
  </g>
  <g
     id="g267"
     transform="translate(-4.635989,-168.44093)"
     clip-path="url(#clipPath567)">
    <g
       id="g265">
      <g
         id="g263">
        <path
           d="m 1.984375,-9.890625 c -0.617187,0 -0.921875,-0.304687 -0.921875,-0.921875 v -5.875 c 0,-0.613281 0.304688,-0.921875 0.921875,-0.921875 h 16.25 c 0.613281,0 0.921875,0.308594 0.921875,0.921875 v 5.875 c 0,0.617188 -0.308594,0.921875 -0.921875,0.921875 z m 0,0"
           transform="translate(217.05,207.027)"
           id="path261" />
      </g>
    </g>
  </g>
  <g
     id="g275"
     transform="translate(-4.635989,-168.44093)"
     clip-path="url(#clipPath563)">
    <g
       id="g273">
      <g
         id="g271">
        <path
           d="M 2.125,0 C 1.601562,0 1.34375,-0.191406 1.34375,-0.578125 c 0,-0.15625 0.050781,-0.332031 0.15625,-0.53125 l 8.578125,-15.53125 c 0.101563,-0.164063 0.101563,-0.328125 0,-0.484375 L 1.5,-32.671875 c -0.105469,-0.1875 -0.15625,-0.363281 -0.15625,-0.53125 0,-0.382813 0.257812,-0.578125 0.78125,-0.578125 h 7.90625 c 0.488281,0 0.84375,0.230469 1.0625,0.6875 l 4.59375,8.78125 c 0.0625,0.125 0.140625,0.1875 0.234375,0.1875 0.09375,0 0.171875,-0.0625 0.234375,-0.1875 L 20.75,-33.09375 c 0.21875,-0.457031 0.570312,-0.6875 1.0625,-0.6875 h 7.859375 c 0.519531,0 0.78125,0.195312 0.78125,0.578125 0,0.167969 -0.05469,0.34375 -0.15625,0.53125 L 21.765625,-17.125 c -0.105469,0.15625 -0.105469,0.320312 0,0.484375 l 8.53125,15.53125 c 0.101563,0.199219 0.15625,0.375 0.15625,0.53125 C 30.453125,-0.191406 30.191406,0 29.671875,0 h -7.8125 c -0.480469,0 -0.835937,-0.222656 -1.0625,-0.671875 l -4.640625,-8.78125 c -0.0625,-0.132813 -0.140625,-0.203125 -0.234375,-0.203125 -0.09375,0 -0.171875,0.070312 -0.234375,0.203125 l -4.640625,8.78125 C 10.828125,-0.222656 10.472656,0 9.984375,0 Z m 0,0"
           transform="translate(237.265,207.027)"
           id="path269" />
      </g>
    </g>
  </g>
  <g
     id="g283"
     transform="translate(-4.635989,-168.44093)"
     clip-path="url(#clipPath559)">
    <g
       id="g281">
      <g
         id="g279">
        <path
           d="M 24.65625,0 C 24.101562,0 23.765625,-0.253906 23.640625,-0.765625 L 22.671875,-4.25 C 22.609375,-4.46875 22.46875,-4.578125 22.25,-4.578125 H 12.203125 c -0.21875,0 -0.367187,0.109375 -0.4375,0.328125 L 10.8125,-0.765625 C 10.675781,-0.253906 10.335938,0 9.796875,0 h -7.8125 C 1.660156,0 1.425781,-0.09375 1.28125,-0.28125 1.132812,-0.476562 1.109375,-0.738281 1.203125,-1.0625 L 11.25,-33 c 0.15625,-0.519531 0.488281,-0.78125 1,-0.78125 h 9.9375 c 0.519531,0 0.859375,0.261719 1.015625,0.78125 L 33.25,-1.0625 c 0.03125,0.09375 0.04687,0.210938 0.04687,0.34375 C 33.296875,-0.238281 33.019531,0 32.46875,0 Z M 13.890625,-11.875 c 0,0.230469 0.113281,0.34375 0.34375,0.34375 h 5.984375 c 0.125,0 0.21875,-0.03516 0.28125,-0.109375 0.07031,-0.08203 0.08594,-0.191406 0.04687,-0.328125 L 17.46875,-23.109375 c -0.03125,-0.164063 -0.105469,-0.25 -0.21875,-0.25 -0.117188,0 -0.203125,0.08594 -0.265625,0.25 l -3.09375,11.140625 z m 0,0"
           transform="translate(269.057,207.027)"
           id="path277" />
      </g>
    </g>
  </g>
  <g
     id="g291"
     transform="translate(-4.635989,-168.44093)"
     clip-path="url(#clipPath555)">
    <g
       id="g289">
      <g
         id="g287">
        <path
           d="M 2.796875,0 C 2.179688,0 1.875,-0.304688 1.875,-0.921875 v -31.9375 c 0,-0.613281 0.304688,-0.921875 0.921875,-0.921875 h 7.234375 c 0.613281,0 0.921875,0.308594 0.921875,0.921875 v 31.9375 C 10.953125,-0.304688 10.644531,0 10.03125,0 Z m 0,0"
           transform="translate(303.503,207.027)"
           id="path285" />
      </g>
    </g>
  </g>
  <path
     stroke-linecap="round"
     fill="none"
     d="M 198.31355,26.753893 V 26.531236"
     stroke="#000000"
     id="path293"
     style="stroke-width:1.38564"
     clip-path="url(#clipPath551)" />
</svg>
